<svg width="15" height="18" fill="none" xmlns="http://www.w3.org/2000/svg"><path d="M2.416.427a1.8 1.8 0 011.121.236 1.753 1.753 0 01-.009 3.04 1.802 1.802 0 01-2.256-.369 1.752 1.752 0 01-.042-2.257 1.79 1.79 0 011.186-.65zM.908 4.707H4.34c-.001.142.004.283-.008.424a6.654 6.654 0 00-2.203 1.55 5.113 5.113 0 00-1.115 1.864l-.106.014V4.707z" fill="#FF8A00"/><path d="M6.727 4.861c.38-.045.763-.066 1.146-.039 1.35.084 2.683.55 3.763 1.363.08.063.166.12.248.184a4.62 4.62 0 011.177 1.322c.085.151.18.296.26.449.353.648.588 1.36.684 2.091.024.173.03.348.042.522.127 2.144.017 4.291.044 6.437H10.87v-2.615c0-.926-.003-1.853.002-2.78-.015-.78-.273-1.547-.688-2.21-.48-.746-1.28-1.304-2.174-1.431-.695-.092-1.437-.004-2.045.36a3.26 3.26 0 00-1.163 1.12 4.476 4.476 0 00-.655 1.99c-.002 1.855 0 3.71-.001 5.566H.924c.007-.396.002-.791.004-1.187-.01-1.249-.03-2.498-.015-3.747.01-.56.028-1.12.063-1.679a6.11 6.11 0 01.968-2.863c.346-.628.88-1.133 1.46-1.55.341-.246.7-.47 1.081-.652a7.13 7.13 0 012.242-.65z" fill="#242424"/></svg>