<svg width="240" height="50" fill="none" xmlns="http://www.w3.org/2000/svg"><path d="M164.008.49c2.845-.75 5.819-.454 8.722-.31 5.412.258 10.721 1.554 15.793 3.374 3.522 1.315 6.994 2.815 10.171 4.815 1.945 1.195 3.855 2.446 5.684 3.806 1.142.85 2.422 1.557 3.821 1.902 1.163.308 2.375.165 3.563.273-1.5.362-3.07.485-4.594.227-1.583-.22-2.916-1.155-4.224-1.983-3.757-2.552-7.762-4.774-12.021-6.417-7.032-2.64-14.462-4.372-22.002-4.695-1.834-.123-3.706-.26-5.514.143-1.45.29-2.793.924-4.081 1.618-2.368 1.31-4.71 2.688-7.206 3.76-1.502.689-3.197.534-4.808.536-4.354-.012-8.712.013-13.067.114-5.482.157-10.514 2.677-14.919 5.695-1.235.773-2.237 1.845-3.47 2.62.584-1.275 1.721-2.172 2.786-3.056 3.006-2.247 6.257-4.343 9.97-5.26 2.642-.694 5.386-.953 8.116-.953 4.036-.012 8.066-.209 12.099-.224 1.094-.012 2.222.064 3.276-.283 2.39-.73 4.521-2.05 6.692-3.237 1.686-.914 3.321-1.995 5.213-2.465z" fill="#fff"/><path d="M173.835 8.763c3.771-1.982 8.229-2.42 12.416-1.76a31.287 31.287 0 019.354 2.714c-.443.406-.868.93-1.512 1.007-.722-.177-1.374-.537-2.066-.788-2.1-.78-4.299-1.249-6.486-1.737-3.781-.82-7.857-.448-11.341 1.247-.752.411-1.485.857-2.264 1.217.576-.678 1.059-1.5 1.899-1.9zm-46.881 2.203c3.095-1.232 6.441-1.8 9.779-1.808 2.685-.057 5.357.276 8.041.325 6.464.323 12.937.505 19.41.399 2.521.04 5.052-.439 7.565-.05-.432.474-.774 1.235-1.524 1.222-5.704.247-11.43.367-17.131-.054-4.443-.283-8.873-.731-13.316-1.03-3.075-.145-6.202-.288-9.231.372-2.199.446-4.295 1.267-6.287 2.267a9.682 9.682 0 012.694-1.643z" fill="#fff"/><path d="M132.522 10.72c1.278-.279 2.632-.129 3.859.295 1.822.727 3.163 2.374 3.724 4.192.349 1.523.193 3.195-.612 4.562-1.132 1.993-3.451 3.281-5.789 3.13-3.006.026-5.688-2.45-6.04-5.337-.446-3.035 1.756-6.242 4.858-6.843zm1.069 1.369c-2.247.157-4.154 2.064-4.41 4.23-.209 1.758.573 3.623 2.063 4.647 1.245.872 2.901 1.101 4.362.692 2.129-.578 3.739-2.682 3.628-4.855-.048-1.453-.82-2.83-1.962-3.736-1.024-.81-2.395-1.07-3.681-.978zm45.749-1.281c1.993-.502 4.284-.13 5.842 1.234 2.367 1.97 2.989 5.725 1.062 8.188-1.837 2.914-6.25 3.51-8.99 1.495-1.532-1.148-2.538-2.988-2.543-4.887-.058-2.712 1.912-5.385 4.629-6.03zm.007 1.217c-2.415.682-4.017 3.333-3.474 5.734.473 2.375 2.961 4.17 5.419 3.887 2.428-.128 4.446-2.241 4.599-4.581.139-1.407-.528-2.781-1.499-3.784-1.273-1.29-3.301-1.739-5.045-1.256zm14.859.185c.918-.496 1.738-1.146 2.626-1.69.7.268 1.336.66 1.937 1.098-2.782 2.567-6.536 3.683-10.149 4.607a27.972 27.972 0 01-.765-1.377c2.169-.75 4.34-1.53 6.351-2.639zm-72.392.606c.755-.747 1.479-1.572 2.501-1.971-.372 2.377-2.184 4.976-4.866 5.022.473-1.224 1.459-2.133 2.365-3.052z" fill="#fff"/><path d="M133.518 12.412c2.115-.318 4.279.953 4.979 2.933.827 2.077-.375 4.641-2.413 5.557-1.512.705-3.419.495-4.743-.507-1.024-.806-1.746-2.027-1.733-3.335-.206-2.23 1.653-4.392 3.91-4.648zm46.056.022c1.222-.259 2.588-.182 3.673.48 1.2.74 2.012 2.037 2.194 3.412.12 2.007-1.238 4.01-3.191 4.655-2.115.771-4.694-.35-5.59-2.365-1.19-2.347.294-5.571 2.914-6.182z" fill="#fff"/><path d="M70.372 17.33c.82-.135 1.65-.224 2.486-.224-.504 2.621-1.246 5.19-1.913 7.772 1.155.015 2.313.007 3.467.052-.156.67-.342 1.332-.568 1.982-1.052-.01-2.103 0-3.153.023-.988 2.855-1.532 5.837-2.294 8.754-.498 2.259-1.145 4.485-1.593 6.754-.083.823-.256 2.062.695 2.468 1.683.503 3.686.101 4.835-1.266.29-.328.199-.806.244-1.205-.02-4.963 1.882-9.894 5.196-13.646 2.646-2.926 6.697-4.495 10.667-4.342 2.008.014 4.156.714 5.379 2.354 1.21 1.572 1.454 3.614 1.421 5.525 2.373.326 4.66-.556 6.791-1.465.367-.172.853-.333.913-.793.475-1.697.805-3.431 1.195-5.148 2.684-.084 5.371-.023 8.058-.035a73.076 73.076 0 01-.261 2.173c1.544-1.087 3.21-2.175 5.16-2.338 1.801-.13 3.824-.21 5.338.926 1.047.734 1.588 1.912 2.094 3.03 1.416-1.586 3.046-3.15 5.208-3.66 2.46-.589 5.446-.525 7.389 1.276 1.29 1.13 1.547 2.938 1.451 4.544-.319 3.892-1.876 7.538-2.626 11.348-.159.922-.131 2.173.795 2.705.84.273 1.786.256 2.649.076 1.439-.483 2.445-1.86 2.823-3.256.282-3.525 1.134-7.087 3.087-10.104 1.844-2.98 4.649-5.562 8.134-6.525a12.738 12.738 0 015.774-.188c1.011.193 1.743.971 2.271 1.789.192-.589.39-1.178.584-1.764 2.659-.05 5.319-.061 7.981.012-1.193 5.686-2.682 11.307-4.003 16.965-.189.918-.315 1.928.095 2.81 1.226 1.232 3.389.82 4.539-.32 1.55-1.5 2.146-3.621 2.569-5.648a1661.16 1661.16 0 003.318-13.819c2.685-.044 5.369-.064 8.051.01-.878 4.724-2.239 9.348-3.256 14.045-.301 1.636-1.064 3.247-.825 4.934.108.931 1.155 1.222 1.97 1.195 2.154.172 4.219-1.414 4.707-3.446.987-4.166 1.958-8.333 3.004-12.484.365-1.419.589-2.87 1.072-4.259 2.674-.027 5.349-.081 8.023.032-.133.756-.279 1.51-.44 2.261 1.263-.909 2.566-1.842 4.113-2.224 2.023-.492 4.247-.399 6.142.503 1.56.766 2.453 2.483 2.483 4.155.231 4.338-1.859 8.323-2.576 12.523-.094.946-.199 2.298.89 2.744 1.004.306 2.159.239 3.14-.123 1.424-.944 2.116-2.562 2.951-3.968a42.055 42.055 0 012.229.012c-.863 2.675-2.377 5.178-4.501 7.074-2.277 1.956-5.587 2.5-8.476 1.764-1.351-.34-2.631-1.128-3.326-2.34-.832-1.305-.86-2.919-.656-4.397.508-3.33 1.768-6.5 2.284-9.828.133-1.076.279-2.298-.392-3.237-.655-.872-1.995-.84-2.866-.317-1.779.982-2.71 2.923-3.185 4.79-.855 3.621-1.812 7.22-2.634 10.848-.383 1.493-.639 3.018-1.16 4.471-2.652.148-5.314.081-7.968.035.096-.759.219-1.513.393-2.26-1.948 1.442-4.28 2.489-6.753 2.543-1.935.135-3.978-.439-5.414-1.744-.528-.736-.823-1.604-1.235-2.404-1.153 1.163-2.305 2.392-3.842 3.067-2.405 1.125-5.399 1.6-7.865.404-1.439-.693-2.106-2.217-2.443-3.663-1.134 1.05-2.143 2.273-3.53 3.025-2.679 1.613-6.229 1.788-9.016.34-1.331-.72-2.172-2.018-2.864-3.294-1.132 1.02-2.005 2.348-3.391 3.074-1.909 1.14-4.254 1.404-6.433 1.064-1.66-.283-3.356-1.096-4.199-2.589-.828-1.413-.803-3.128-.521-4.687.415-2.17.994-4.306 1.59-6.431.395-1.57.841-3.163.76-4.794-.048-.818-.425-1.766-1.283-2.047-1.152-.377-2.373.234-3.2 1.005-.961 1.04-1.605 2.345-2 3.688-1.294 5.207-2.468 10.441-3.799 15.639-2.672.211-5.362.086-8.041.074.516-3.045 1.414-6.01 2.083-9.023.631-2.73 1.263-5.456 1.947-8.17.259-1.102.259-2.555-.795-3.262-1.056-.3-2.234.071-3.026.79-1.304 1.158-2.068 2.784-2.473 4.437-1.102 4.8-2.365 9.567-3.437 14.378-.121.293-.138.86-.569.864-2.578.013-5.157.082-7.734-.059 1.125-5.591 2.781-11.07 3.872-16.666-2.204.742-4.385 1.71-6.747 1.82-.48 1.257-.546 2.614-.91 3.9-1.015 3.926-3.433 7.62-7.038 9.712-2.312 1.37-5.125 1.67-7.769 1.355-1.457-.138-2.863-.633-4.106-1.38-.926-.569-1.567-1.45-2.277-2.239-1.469 1.496-3.218 2.772-5.285 3.338-2.426.672-5.337.86-7.45-.717-1.011-.687-1.45-1.857-1.847-2.94-1.024.812-1.849 1.854-2.981 2.534-2.07 1.278-4.614 1.872-7.047 1.5-1.19-.214-2.36-.742-3.208-1.601-.629-.843-.83-1.9-1.152-2.875-1.213 1.64-2.702 3.207-4.685 3.932-2.425.913-5.384 1.005-7.572-.53-1.044-.7-1.532-1.89-1.938-3.015-1.305.988-2.294 2.38-3.816 3.079-1.781.862-3.807 1.259-5.79 1.072-1.413-.156-2.85-.774-3.695-1.932-.523-.7-.755-1.549-.994-2.37-1.114 1.085-2.138 2.309-3.532 3.065-2.139 1.264-4.793 1.586-7.208 1.012-1.91-.542-3.638-1.88-4.395-3.71-.971-2.036-.69-4.352-.587-6.524.712-4.397 2.7-8.747 6.124-11.76 2.926-2.645 7.306-3.721 11.143-2.64.974.34 1.444 1.32 1.862 2.17.13-.759.264-1.512.377-2.271 2.705-.173 5.422-.084 8.131-.05a30.71 30.71 0 01-.259 1.432c-1.215 5.057-2.488 10.101-3.69 15.16-.19 1.048-.496 2.26.108 3.225 1.27 1.195 3.421.776 4.543-.424a9.153 9.153 0 002.119-4.079c1.222-5.104 2.463-10.202 3.69-15.306 2.705-.084 5.412-.06 8.12-.012-1.324 5.72-2.746 11.421-4.087 17.139-.163.948-.241 2.143.577 2.835 1.187.46 2.608.108 3.534-.724 1.178-1.227 2.018-2.784 2.287-4.454.926-4.042 1.973-8.057 2.87-12.107.197-.916.456-1.817.778-2.7 2.657-.031 5.314-.041 7.97.003-.185 1.604-.694 3.146-1.064 4.715-1.026 4.17-2.025 8.345-2.998 12.528-.149.896-.395 2.27.649 2.741 1.237.333 2.747.338 3.77-.53 1.364-1.18 2.268-2.825 2.61-4.569.963-4.3 2.181-8.55 3.009-12.877-.574-.003-1.145 0-1.716.005.156-.648.04-1.431.448-1.98.594-.07 1.19-.065 1.786-.084.69-2.252 1.115-4.567 1.751-6.831 1.925-.325 3.882-.404 5.812-.704zM85.555 29c-2.15 2.525-3.399 5.665-4.116 8.848-.412 1.672-.304 3.406-.274 5.11 0 .9.37 2 1.348 2.272 1.143.244 2.496.249 3.43-.544 1.31-1.077 2.214-2.547 2.888-4.067.75-1.72 1.451-3.498 1.582-5.38-.457-.332-1.004-.606-1.295-1.106-.234-.638-.191-1.347-.06-2.002.183-.897 1.154-1.286 1.587-2.038-.015-.916-.29-2.066-1.248-2.453-1.422-.411-2.924.3-3.842 1.36zm-70.764-1.035c-1.497.567-2.5 1.88-3.364 3.14-2.02 3.149-3.19 6.863-3.001 10.6-.028 1.187.138 2.742 1.439 3.244 1.07.251 2.3.256 3.253-.35 1.401-.864 2.428-2.293 2.765-3.884.81-3.54 1.69-7.065 2.551-10.595.345-.916-.294-1.955-1.198-2.258a4.985 4.985 0 00-2.445.103zm142.172.062c-1.753.818-2.988 2.414-3.829 4.084-1.456 2.729-2.44 5.754-2.463 8.853-.025 1.209.028 2.542.823 3.534.659.683 1.721.63 2.601.564 1.384-.13 2.423-1.192 3.17-2.256 1.039-1.485 1.19-3.33 1.616-5.032.561-2.173 1.069-4.355 1.622-6.53.174-.828.559-1.764.106-2.564-.77-1.173-2.466-1.062-3.646-.653zm-2.77-9.834c6.539.069 13.065-.436 19.579-.922.315.486.604.988.871 1.5-4.579.316-9.166.503-13.755.59-6.033.307-12.079.076-18.112.305-.825.04-1.653.046-2.475.01.417-.412.785-1.037 1.456-1.025 4.157-.155 8.315-.3 12.477-.251l-.041-.207zm-37.064.243c1.251-.076 2.489.153 3.731.235 2.089.18 4.184.022 6.273.12-.355.316-.64.872-1.198.823-2.556-.035-5.127-.104-7.646-.547a1.817 1.817 0 01-1.16-.63z" fill="#fff"/><path d="M219.372 28.543c1.062-2.298 3.656-3.682 6.187-3.653 4.813.032 9.628-.056 14.441.047-.413.97-1.027 1.838-1.618 2.707a7098.76 7098.76 0 00-10 15.11c-.665 1.03-1.412 2.017-1.89 3.15 1.703.076 3.407.372 5.112.21.594-.033 1.112-.33 1.585-.66-.362-.412-.85-.76-1.019-1.294.325-1.825 2.632-2.535 4.255-1.988.984.247 1.462 1.308 1.449 2.227.005 1.722-1.248 3.168-2.627 4.094-1.653 1.118-3.731 1.273-5.678 1.246-4.468-.059-8.936.094-13.402-.069.186-.43.372-.864.626-1.264 1.46-2.2 2.929-4.394 4.29-6.655 2.38-3.446 4.604-6.99 6.894-10.493.772-1.202 1.65-2.34 2.269-3.629-1.95-.005-3.968-.27-5.87.254.093.872.481 1.803.101 2.655-.818 1.58-3.208 1.993-4.622.97-.873-.716-.994-2.011-.483-2.965z" fill="#fff"/></svg>