<?xml version="1.0" standalone="no"?>
<!DOCTYPE svg PUBLIC "-//W3C//DTD SVG 20010904//EN"
 "http://www.w3.org/TR/2001/REC-SVG-20010904/DTD/svg10.dtd">
<svg version="1.0" xmlns="http://www.w3.org/2000/svg"
 width="1140.000000pt" height="1140.000000pt" viewBox="0 0 1140.000000 1140.000000"
 preserveAspectRatio="xMidYMid meet">
<metadata>
Created by potrace 1.14, written by Peter Selinger 2001-2017
</metadata>
<g transform="translate(0.000000,1140.000000) scale(0.100000,-0.100000)"
fill="#000000" stroke="none">
<path d="M2425 11150 c-140 -22 -246 -54 -354 -107 -297 -147 -528 -432 -610
-756 -38 -148 -44 -336 -16 -478 3 -13 8 -37 11 -54 19 -104 94 -271 175 -392
79 -116 243 -271 354 -333 92 -52 127 -69 192 -93 252 -95 537 -96 792 -2 296
109 557 362 674 657 147 366 85 798 -159 1118 -177 231 -426 381 -724 435 -56
10 -280 13 -335 5z"/>
<path d="M1470 7114 l0 -1254 32 5 c42 8 44 10 52 46 21 105 195 472 313 660
194 308 457 610 748 859 255 218 610 448 927 600 l135 65 2 136 2 137 -1106 0
-1105 0 0 -1254z"/>
<path d="M5509 8296 c-2 -2 -53 -6 -114 -10 -60 -3 -121 -8 -135 -10 -14 -3
-47 -7 -75 -11 -27 -3 -75 -10 -105 -15 -30 -5 -73 -12 -95 -16 -22 -3 -58 -9
-80 -14 -22 -5 -56 -12 -75 -15 -196 -33 -618 -164 -835 -259 -222 -98 -343
-159 -526 -267 -212 -124 -465 -304 -679 -483 -423 -352 -824 -965 -1063
-1627 -26 -69 -48 -137 -51 -150 -3 -13 -19 -71 -35 -128 -17 -58 -32 -116
-35 -130 -2 -14 -16 -80 -30 -146 -13 -66 -27 -145 -31 -175 -3 -30 -8 -62
-10 -70 -2 -8 -7 -46 -10 -85 -3 -38 -8 -88 -10 -110 -3 -22 -7 -89 -10 -150
-3 -60 -7 -153 -10 -205 -24 -492 -32 -1461 -20 -2480 3 -206 5 -628 6 -937
l2 -563 1036 0 1036 0 1 1838 c0 1010 4 1862 7 1892 7 51 9 67 21 133 2 12 7
40 11 62 4 22 11 54 15 70 5 17 12 42 15 58 12 64 17 83 51 194 130 428 338
789 618 1069 288 288 637 479 1001 550 11 2 31 6 45 9 101 20 264 32 405 30
156 -3 231 -9 358 -31 147 -24 327 -84 482 -159 268 -130 506 -316 708 -555
120 -141 307 -468 385 -670 18 -47 37 -94 41 -105 16 -38 63 -183 76 -235 22
-87 55 -244 60 -280 3 -25 8 -61 11 -80 2 -19 7 -55 10 -80 4 -25 7 -868 8
-1875 l1 -1830 1036 -3 1037 -2 1 577 c1 318 4 783 6 1033 6 628 6 1523 1
1710 -3 85 -8 261 -11 390 -4 129 -8 264 -10 300 -10 190 -16 288 -20 310 -2
14 -6 52 -10 85 -16 161 -19 186 -46 345 -11 63 -22 122 -25 130 -3 8 -10 38
-15 65 -14 76 -71 267 -117 390 -96 259 -282 645 -397 825 -191 300 -304 445
-496 639 -123 124 -182 174 -414 348 -178 133 -243 178 -390 266 -245 147
-439 243 -695 342 -296 115 -620 203 -920 250 -122 19 -215 30 -340 41 -65 6
-546 14 -551 10z"/>
</g>
</svg>
