<?xml version="1.0" standalone="no"?>
<!DOCTYPE svg PUBLIC "-//W3C//DTD SVG 20010904//EN"
 "http://www.w3.org/TR/2001/REC-SVG-20010904/DTD/svg10.dtd">
<svg version="1.0" xmlns="http://www.w3.org/2000/svg"
 width="1024.000000pt" height="1024.000000pt" viewBox="0 0 1024.000000 1024.000000"
 preserveAspectRatio="xMidYMid meet">
<metadata>
Created by potrace 1.14, written by Peter Selinger 2001-2017
</metadata>
<g transform="translate(0.000000,1024.000000) scale(0.100000,-0.100000)"
fill="#000000" stroke="none">
<path d="M0 5120 l0 -5120 5120 0 5120 0 0 5120 0 5120 -5120 0 -5120 0 0
-5120z m5988 1240 c229 -16 317 -27 607 -76 511 -86 1153 -314 1636 -581 172
-95 503 -315 749 -497 92 -68 220 -130 324 -156 89 -22 195 -24 306 -5 33 6
34 5 15 -10 -43 -34 -195 -59 -310 -50 -170 14 -296 63 -480 190 -66 45 -187
124 -270 175 -82 51 -168 104 -189 117 -93 60 -504 260 -636 310 -72 28 -263
97 -325 118 -164 56 -607 180 -740 206 -212 43 -515 89 -665 103 -257 24 -559
39 -660 32 -151 -11 -338 -62 -449 -123 -25 -14 -122 -69 -216 -121 -329 -183
-369 -205 -461 -248 -188 -87 -161 -84 -728 -84 -600 -1 -1099 -14 -1216 -34
-210 -35 -397 -95 -619 -197 -216 -100 -674 -406 -780 -523 -33 -35 -45 -33
-37 7 16 82 306 323 610 507 167 101 252 141 396 188 224 72 373 102 605 121
127 11 879 28 1299 31 238 1 333 10 426 39 94 29 327 147 615 311 138 79 268
150 290 160 48 20 148 55 190 66 132 32 439 43 713 24z m1147 -630 c169 -14
324 -41 495 -86 213 -56 510 -167 510 -191 0 -14 -116 -93 -136 -93 -8 0 -37
11 -64 25 -171 87 -708 224 -955 245 -141 11 -321 1 -447 -25 -172 -37 -393
-127 -505 -208 -24 -16 -46 -27 -49 -24 -12 11 74 115 122 148 106 73 319 153
499 188 149 29 338 37 530 21z m-4075 -220 c244 -15 523 -27 1010 -46 429 -16
1099 -15 1673 2 128 4 207 3 207 -3 0 -13 -78 -116 -95 -126 -8 -4 -290 -10
-627 -13 -561 -6 -640 -4 -928 15 -352 24 -358 25 -595 46 -93 8 -233 20 -310
25 -77 6 -194 15 -260 21 -468 37 -652 33 -945 -22 -165 -31 -353 -95 -500
-169 -70 -36 -79 -37 -54 -9 70 77 363 191 629 244 215 42 473 54 795 35z
m-425 -144 c160 -42 306 -171 382 -336 39 -85 45 -122 41 -246 -4 -99 -8 -129
-30 -181 -76 -181 -211 -305 -387 -357 -78 -23 -248 -21 -328 3 -84 25 -180
81 -233 133 -54 53 -126 164 -152 232 -26 65 -35 238 -18 320 24 117 133 281
230 345 83 56 129 75 255 105 33 8 186 -3 240 -18z m4334 -3 c177 -49 328
-196 394 -381 31 -86 30 -263 -1 -354 -44 -126 -141 -252 -243 -314 -100 -60
-187 -84 -308 -84 -270 1 -471 144 -563 400 -33 93 -33 256 1 353 26 77 100
193 158 249 78 76 216 139 328 151 62 7 174 -3 234 -20z m1382 -20 c49 -26 88
-52 86 -58 -11 -35 -289 -209 -427 -267 -137 -59 -451 -158 -497 -158 -12 0
-30 20 -51 56 -18 31 -32 59 -32 64 0 5 33 19 73 33 163 57 244 89 374 152
129 62 314 175 342 209 20 24 36 20 132 -31z m-6763 -17 c7 -61 -79 -225 -163
-311 -86 -89 -263 -161 -273 -112 -10 49 379 468 421 454 7 -2 13 -16 15 -31z
m4592 -631 c25 -38 39 -69 34 -74 -17 -15 -475 -40 -1124 -61 -431 -14 -2009
-34 -2017 -26 -4 4 13 27 37 51 l45 44 345 10 c190 6 521 15 735 21 639 17
1459 58 1780 90 44 4 90 8 101 9 16 1 32 -16 64 -64z m-5035 -67 c44 -5 223
-11 398 -14 174 -3 317 -9 317 -13 0 -4 -20 -22 -44 -39 l-44 -32 -154 0
c-179 0 -334 13 -508 41 -128 20 -170 32 -170 47 0 18 46 31 85 26 22 -4 76
-11 120 -16z"/>
<path d="M2430 5239 c-143 -18 -273 -116 -345 -263 -109 -219 -8 -494 222
-604 76 -36 81 -37 194 -37 l116 0 86 43 c92 46 146 96 198 187 46 80 62 148
57 247 -4 75 -9 96 -41 162 -51 102 -121 177 -208 220 -38 19 -91 38 -117 41
-26 3 -58 7 -72 9 -14 1 -54 -1 -90 -5z m175 -34 c162 -43 286 -176 316 -342
32 -171 -78 -371 -246 -448 -214 -99 -449 -14 -560 202 -28 55 -30 64 -30 178
0 111 2 124 28 176 95 190 295 285 492 234z"/>
<path d="M6637 5240 c-127 -48 -215 -131 -276 -260 -24 -50 -26 -66 -26 -175
0 -116 1 -123 33 -187 83 -169 237 -268 417 -268 180 0 334 99 417 268 32 64
33 71 33 187 0 114 -2 123 -31 185 -61 127 -144 202 -275 250 -72 27 -222 26
-292 0z m303 -39 c79 -31 143 -81 192 -153 55 -82 77 -147 78 -231 0 -169
-120 -348 -274 -406 -114 -42 -238 -35 -348 20 -78 39 -141 107 -186 198 -31
63 -38 87 -41 154 -5 117 18 184 100 294 44 59 130 115 210 138 73 20 197 14
269 -14z"/>
</g>
</svg>
