<svg width="34" height="30" fill="none" xmlns="http://www.w3.org/2000/svg"><path d="M13.25 10a1.25 1.25 0 011.25 1.25v4.167c0 1.15.934 2.083 2.084 2.083h1.25v-6.25a1.25 1.25 0 012.5 0v6.25h7.083a1.25 1.25 0 110 2.5H16.583A4.583 4.583 0 0112 15.417V11.25A1.25 1.25 0 0113.25 10zm0-10a1.25 1.25 0 011.25 1.25v2.083h3.334V1.25a1.25 1.25 0 012.5 0v2.083h4.583a1.25 1.25 0 011.16.785L27.43 7.5h1.654a4.583 4.583 0 014.583 4.583v9.167a4.583 4.583 0 01-4.584 4.583H27.43l-1.353 3.382a1.25 1.25 0 01-1.16.785h-12.5a1.248 1.248 0 01-.913-.397l-4.937-5.29a4.583 4.583 0 01-1.234-3.126v-5.354h-2.5v6.25a1.25 1.25 0 11-2.5 0V7.917a1.25 1.25 0 112.5 0v5.416h2.5V7.917a4.583 4.583 0 014.584-4.584H12V1.25A1.25 1.25 0 0113.25 0zM9.917 5.833c-1.15 0-2.083.934-2.083 2.084v13.27c0 .526.2 1.035.56 1.421L12.96 27.5h11.11l1.354-3.382a1.25 1.25 0 011.16-.785h2.5c1.15 0 2.083-.933 2.083-2.083v-9.167c0-1.15-.934-2.083-2.084-2.083h-2.5a1.25 1.25 0 01-1.16-.785L24.07 5.833H9.917z" fill="#4F4F4F"/></svg>