<svg width="64" height="64" fill="none" xmlns="http://www.w3.org/2000/svg"><path d="M42 62H22V34a2 2 0 012-2h16a2 2 0 012 2v28zm18 0H42v-9.667a2 2 0 012-2h16a2 2 0 012 2V60a2 2 0 01-2 2v0zm-38 0V45.667a2 2 0 00-2-2H4a2 2 0 00-2 2V60a2 2 0 002 2h18v0zm6.02-52.957l3.03-6.423a1.04 1.04 0 011.9 0l3.033 6.423 6.774 1.037c.87.133 1.216 1.253.586 1.893l-4.9 5 1.157 7.06c.147.907-.76 1.6-1.54 1.17L32 21.87l-6.06 3.333c-.777.427-1.687-.263-1.54-1.17l1.157-7.06-4.9-5c-.634-.64-.284-1.76.583-1.893l6.78-1.033v-.004z" stroke="#007CE3" stroke-width="4" stroke-linecap="round" stroke-linejoin="round"/></svg>