<svg width="233" height="190" fill="none" xmlns="http://www.w3.org/2000/svg"><path d="M186.972 74.592a40.333 40.333 0 00-8.754-12.839 40.633 40.633 0 00-12.922-8.605A40.536 40.536 0 00149.544 50a40.844 40.844 0 00-21.414 6.047c-1.538.946-3 1.985-4.384 3.117a40.174 40.174 0 00-4.384-3.117A40.846 40.846 0 0097.948 50c-5.461 0-10.753 1.054-15.753 3.148a40.563 40.563 0 00-12.922 8.605 40.083 40.083 0 00-8.753 12.839 40.03 40.03 0 00-3.23 15.8c0 5.163 1.046 10.543 3.122 16.017 1.739 4.574 4.23 9.318 7.415 14.109 5.046 7.583 11.984 15.49 20.599 23.507 14.275 13.288 28.413 22.467 29.013 22.839l3.645 2.357a4.91 4.91 0 005.308 0l3.646-2.357c.6-.388 14.721-9.551 29.013-22.839 8.614-8.017 15.552-15.924 20.598-23.507 3.184-4.791 5.692-9.535 7.415-14.109 2.077-5.474 3.123-10.854 3.123-16.017a39.758 39.758 0 00-3.215-15.8z" fill="#E01F1F"/><g clip-path="url(#clip0_186_7574)"><path d="M159.73.92c.632-1.226 2.379-1.226 3.011 0l4.022 7.805c.162.312.416.567.727.729l7.78 4.036c1.222.633 1.222 2.386 0 3.02l-7.78 4.036a1.705 1.705 0 00-.727.73l-4.022 7.805c-.632 1.226-2.379 1.226-3.011 0l-4.022-7.806a1.694 1.694 0 00-.727-.729l-7.78-4.036c-1.222-.634-1.222-2.387 0-3.02l7.78-4.036c.312-.162.566-.417.727-.73L159.73.92z" fill="#E01F1F"/></g><g clip-path="url(#clip1_186_7574)"><path d="M20.49 103.379c.926-1.02 2.614-.566 2.908.782l1.872 8.584a1.7 1.7 0 00.514.893l6.473 5.919c1.017.929.565 2.622-.779 2.917l-8.556 1.878a1.7 1.7 0 00-.89.516l-5.9 6.495c-.926 1.02-2.613.566-2.907-.782l-1.872-8.584a1.7 1.7 0 00-.514-.893l-6.474-5.918c-1.016-.93-.564-2.623.78-2.918l8.555-1.878c.343-.075.654-.255.89-.516l5.9-6.495z" fill="#E01F1F"/></g><g clip-path="url(#clip2_186_7574)"><path d="M21.52 34.367c1.12-4.195 6.138-2.846 7.259-7.041 1.29-4.83 4.399-10.885 9.213-9.59 4.181 1.123 2.837 6.157 7.018 7.28 4.811 1.294 10.848 4.414 9.558 9.244-1.12 4.196-6.138 2.847-7.259 7.042-1.289 4.827-4.399 10.884-9.213 9.59-4.182-1.124-2.837-6.159-7.018-7.283-4.82-1.298-10.848-4.413-9.559-9.242z" fill="#E01F1F"/></g><g clip-path="url(#clip3_186_7574)"><path d="M219.95 56.98c1.96-.528 2.59 1.832 4.55 1.305 2.257-.606 5.436-.76 6.04 1.505.525 1.966-1.826 2.599-1.301 4.565.604 2.263.757 5.453-1.5 6.06-1.96.526-2.59-1.834-4.551-1.307-2.255.606-5.435.76-6.039-1.505-.526-1.966 1.827-2.598 1.302-4.565-.605-2.267-.757-5.452 1.499-6.059z" fill="#E01F1F"/></g><ellipse cx="213.066" cy="97" rx="1.993" ry="2" fill="#E01F1F"/><defs><clipPath id="clip0_186_7574"><path fill="#fff" transform="translate(146.285)" d="M0 0h29.902v30H0z"/></clipPath><clipPath id="clip1_186_7574"><path fill="#fff" transform="rotate(15.047 -370.933 78.8) skewX(.094)" d="M0 0h29.909v29.993H0z"/></clipPath><clipPath id="clip2_186_7574"><path fill="#fff" transform="rotate(104.953 19.956 33.608) skewX(-.094)" d="M0 0h31.993v31.902H0z"/></clipPath><clipPath id="clip3_186_7574"><path fill="#fff" transform="rotate(164.953 111.944 49.886) skewX(-.094)" d="M0 0h14.954v14.997H0z"/></clipPath></defs></svg>