<svg width="34" height="34" fill="none" xmlns="http://www.w3.org/2000/svg"><path d="M22.25 21.167v1h1a3.166 3.166 0 013.167 3.166v1.042a2.042 2.042 0 104.083 0V16h-2.04a.042.042 0 01-.042-.042v-6.51a.042.042 0 01.041-.042h4.138l-.023-1.023c-.023-.997-.108-2.04-.501-2.92A3.021 3.021 0 0030.85 4.05l-.004-.002c-.58-.346-1.353-.548-2.389-.548a.042.042 0 110-.083c1.049 0 1.837.204 2.429.558l.002.001c.594.353.99.854 1.253 1.44h0c.511 1.135.525 2.595.525 3.926v6.616a.041.041 0 01-.042.042h-2.041v10.375a2.125 2.125 0 01-4.25 0v-1.042a3.083 3.083 0 00-3.084-3.083h-1v10.333h2.042c.01 0 .021.005.03.013a.042.042 0 01-.03.07H1.375a.042.042 0 010-.083h2.042V4.5a3.167 3.167 0 013.167-3.167h12.5A3.167 3.167 0 0122.25 4.5v16.667zM3.5 31.583v1h18.667V4.5a3.083 3.083 0 00-3.084-3.083h-12.5A3.083 3.083 0 003.5 4.5v27.083z" fill="#4F4F4F" stroke="#4F4F4F" stroke-width="2"/></svg>