<svg width="251" height="250" fill="none" xmlns="http://www.w3.org/2000/svg"><path d="M124.815 57.155c-25.73 8.685-82.5-26.4-91.125 16.13-7.09 34.905 28.59 69.93 75 81.845 32.945 8.46 77.645-6.07 85.27-47.105 4.77-25.665-14.5-54.97-29.715-60.81-19.015-7.29-22.65 4.285-39.43 9.94z" fill="#30A1FF"/><path opacity=".9" d="M124.815 57.155c-25.73 8.685-82.5-26.4-91.125 16.13-7.09 34.905 28.59 69.93 75 81.845 32.945 8.46 77.645-6.07 85.27-47.105 4.77-25.665-14.5-54.97-29.715-60.81-19.015-7.29-22.65 4.285-39.43 9.94z" fill="#fff" fill-opacity=".7"/><path d="M125.5 213.78c53.541 0 96.945-2.534 96.945-5.66 0-3.126-43.404-5.66-96.945-5.66-53.542 0-96.945 2.534-96.945 5.66 0 3.126 43.403 5.66 96.945 5.66z" fill="#E9E9E9"/><path d="M93.775 64.14a16.866 16.866 0 00-.225-2.78 17.5 17.5 0 00-17.085-14.65h-.15a17.414 17.414 0 00-14.13 7.25c-.265.365-.5.74-.74 1.115a17.33 17.33 0 00-2.55 9.08v.035A17.44 17.44 0 0090.5 74.315c.26-.365.5-.735.735-1.115a17.226 17.226 0 002.54-9.06zm-34.135-.395a16.5 16.5 0 012.315-8.1h5.455a27.54 27.54 0 00-1.295 8.1H59.64zm8.535-8.1h7.78v8.1h-9.09a26.687 26.687 0 011.31-8.1zm8.53-.75v-7.46a6.1 6.1 0 013 1.115c1.855 1.27 3.41 3.5 4.5 6.345h-7.5zm7.77.75a25.912 25.912 0 011.2 5.775c.075.78.11 1.555.12 2.325h-9.09v-8.1h7.77zm-9.62-8a5.282 5.282 0 011.1-.19v7.455h-7.5c1.4-3.77 3.67-6.51 6.4-7.28v.015zm1.1 16.865v8.1H68.19A25.626 25.626 0 0167 66.82c-.07-.78-.11-1.555-.12-2.325l9.075.015zm0 8.85v7.46a6.115 6.115 0 01-3-1.115c-1.85-1.27-3.405-3.5-4.5-6.345h7.5zm1.85 7.265a5.23 5.23 0 01-1.1.19v-7.47h7.5c-1.4 3.755-3.67 6.5-6.4 7.265v.015zm-1.1-8V64.5h9.09a26.543 26.543 0 01-1.31 8.1l-7.78.025zm9.84-8.125h6.5a16.561 16.561 0 01-2.315 8.1h-5.48a27.54 27.54 0 001.295-8.1zm6.5-.75h-6.5c0-.79-.05-1.59-.125-2.395a26.45 26.45 0 00-1.145-5.705h5.445a16.706 16.706 0 012.095 5.8c.119.76.189 1.526.21 2.295l.02.005zM86.11 50.585a16.79 16.79 0 014.16 4.315H85c-1.12-3.095-2.805-5.545-4.87-6.965l-.16-.105a16.72 16.72 0 016.12 2.75l.02.005zM72.675 47.84c-2.105 1.385-3.835 3.905-5 7.06h-5.25l.365-.535a16.594 16.594 0 019.865-6.53l.02.005zm-13 16.66h6.475c0 .79.05 1.59.125 2.395A26.75 26.75 0 0067.42 72.6h-5.475a16.604 16.604 0 01-2.305-8.1h.035zm2.77 8.85h5.23c1.12 3.095 2.805 5.545 4.87 6.965l.165.105a16.81 16.81 0 01-10.265-7.07zM80 80.405c2.1-1.38 3.83-3.905 5-7.06h5.24c-.12.18-.24.36-.365.535A16.575 16.575 0 0180 80.405z" fill="#30A1FF"/><path opacity=".8" d="M93.775 64.14a16.866 16.866 0 00-.225-2.78 17.5 17.5 0 00-17.085-14.65h-.15a17.414 17.414 0 00-14.13 7.25c-.265.365-.5.74-.74 1.115a17.33 17.33 0 00-2.55 9.08v.035A17.44 17.44 0 0090.5 74.315c.26-.365.5-.735.735-1.115a17.226 17.226 0 002.54-9.06zm-34.135-.395a16.5 16.5 0 012.315-8.1h5.455a27.54 27.54 0 00-1.295 8.1H59.64zm8.535-8.1h7.78v8.1h-9.09a26.687 26.687 0 011.31-8.1zm8.53-.75v-7.46a6.1 6.1 0 013 1.115c1.855 1.27 3.41 3.5 4.5 6.345h-7.5zm7.77.75a25.912 25.912 0 011.2 5.775c.075.78.11 1.555.12 2.325h-9.09v-8.1h7.77zm-9.62-8a5.282 5.282 0 011.1-.19v7.455h-7.5c1.4-3.77 3.67-6.51 6.4-7.28v.015zm1.1 16.865v8.1H68.19A25.626 25.626 0 0167 66.82c-.07-.78-.11-1.555-.12-2.325l9.075.015zm0 8.85v7.46a6.115 6.115 0 01-3-1.115c-1.85-1.27-3.405-3.5-4.5-6.345h7.5zm1.85 7.265a5.23 5.23 0 01-1.1.19v-7.47h7.5c-1.4 3.755-3.67 6.5-6.4 7.265v.015zm-1.1-8V64.5h9.09a26.543 26.543 0 01-1.31 8.1l-7.78.025zm9.84-8.125h6.5a16.561 16.561 0 01-2.315 8.1h-5.48a27.54 27.54 0 001.295-8.1zm6.5-.75h-6.5c0-.79-.05-1.59-.125-2.395a26.45 26.45 0 00-1.145-5.705h5.445a16.706 16.706 0 012.095 5.8c.119.76.189 1.526.21 2.295l.02.005zM86.11 50.585a16.79 16.79 0 014.16 4.315H85c-1.12-3.095-2.805-5.545-4.87-6.965l-.16-.105a16.72 16.72 0 016.12 2.75l.02.005zM72.675 47.84c-2.105 1.385-3.835 3.905-5 7.06h-5.25l.365-.535a16.594 16.594 0 019.865-6.53l.02.005zm-13 16.66h6.475c0 .79.05 1.59.125 2.395A26.75 26.75 0 0067.42 72.6h-5.475a16.604 16.604 0 01-2.305-8.1h.035zm2.77 8.85h5.23c1.12 3.095 2.805 5.545 4.87 6.965l.165.105a16.81 16.81 0 01-10.265-7.07zM80 80.405c2.1-1.38 3.83-3.905 5-7.06h5.24c-.12.18-.24.36-.365.535A16.575 16.575 0 0180 80.405z" fill="#FAFAFA"/><path d="M207.644 72.45h-157.2v38.09h157.2V72.45z" fill="#30A1FF"/><path opacity=".6" d="M207.644 72.45h-157.2v38.09h157.2V72.45z" fill="#FAFAFA"/><path d="M204.099 75.995h-157.2v38.09h157.2v-38.09z" fill="#30A1FF"/><path opacity=".3" d="M204.099 75.995h-157.2v38.09h157.2v-38.09z" fill="#000"/><path d="M200.554 79.54h-157.2v38.09h157.2V79.54z" fill="#30A1FF"/><path opacity=".1" d="M200.554 79.54h-157.2v38.09h157.2V79.54z" fill="#FAFAFA"/><path d="M193.055 110.13V87.04h-142.2v23.09h142.2z" fill="#30A1FF"/><path opacity=".9" d="M193.055 110.13V87.04h-142.2v23.09h142.2z" fill="#FAFAFA"/><path d="M169.135 87.04v23.09h.835V87.04h-.835z" fill="#30A1FF"/><path opacity=".6" d="M169.135 87.04v23.09h.835V87.04h-.835z" fill="#FAFAFA"/><path d="M54.4 90.225v16.72h.834v-16.72H54.4z" fill="#30A1FF"/><path opacity=".6" d="M54.4 90.225v16.72h.834v-16.72H54.4z" fill="#FAFAFA"/><path d="M180.715 101.5a3.688 3.688 0 01-3.408-5.102 3.697 3.697 0 012.689-2.207 3.692 3.692 0 014.339 2.899 3.69 3.69 0 01-3.62 4.41zm0-6.375a2.69 2.69 0 101.9.785 2.662 2.662 0 00-1.9-.81v.025z" fill="#30A1FF"/><path d="M185.5 103.07a.485.485 0 01-.355-.15l-2.525-2.525a.497.497 0 01-.028-.733.492.492 0 01.373-.146.502.502 0 01.36.174l2.525 2.525a.502.502 0 01-.35.855z" fill="#30A1FF"/><g opacity=".6" fill="#FAFAFA"><path d="M180.715 101.5a3.688 3.688 0 01-3.408-5.102 3.697 3.697 0 012.689-2.207 3.692 3.692 0 014.339 2.899 3.69 3.69 0 01-3.62 4.41zm0-6.375a2.69 2.69 0 101.9.785 2.662 2.662 0 00-1.9-.81v.025z"/><path d="M185.5 103.07a.486.486 0 01-.192-.04.49.49 0 01-.163-.11l-2.525-2.525a.507.507 0 01-.174-.361.496.496 0 01.317-.484.5.5 0 01.562.14l2.525 2.525a.5.5 0 010 .705.5.5 0 01-.35.15z"/></g><path d="M146.795 49.425h-15.72v.39h15.72v-.39zm0 1.655h-15.72v.39h15.72v-.39zm0 1.66h-15.72v.39h15.72v-.39zm0 1.655h-15.72v.39h15.72v-.39zm0 1.655h-15.72v.39h15.72v-.39zm-5.47 1.66h-10.25v.39h10.25v-.39z" fill="#30A1FF"/><path d="M146.795 49.425h-15.72v.39h15.72v-.39zm0 1.655h-15.72v.39h15.72v-.39zm0 1.66h-15.72v.39h15.72v-.39zm0 1.655h-15.72v.39h15.72v-.39zm0 1.655h-15.72v.39h15.72v-.39zm-5.47 1.66h-10.25v.39h10.25v-.39z" opacity=".5" fill="#FAFAFA"/><path d="M52.175 120.92h-16.75v.25h16.75v-.25zm0 1.06h-16.75v.25h16.75v-.25zm0 1.06h-16.75v.25h16.75v-.25zm0 1.06h-16.75v.25h16.75v-.25zm0 1.06h-16.75v.25h16.75v-.25zm-6.22 1.065h-10.53v.25h10.53v-.25z" fill="#30A1FF"/><path d="M52.175 120.92h-16.75v.25h16.75v-.25zm0 1.06h-16.75v.25h16.75v-.25zm0 1.061h-16.75v.25h16.75v-.25zm0 1.06h-16.75v.25h16.75v-.25zm0 1.06h-16.75v.25h16.75v-.25zm-6.22 1.065h-10.53v.25h10.53v-.25z" opacity=".4" fill="#FAFAFA"/><path d="M107.224 51.88a3.16 3.16 0 00-3.16 3.16v10.425a3.159 3.159 0 003.16 3.16 3.16 3.16 0 003.16-3.16V55.04a3.158 3.158 0 00-3.16-3.16z" fill="#30A1FF"/><path opacity=".2" d="M107.224 51.88a3.16 3.16 0 00-3.16 3.16v10.425a3.159 3.159 0 003.16 3.16 3.16 3.16 0 003.16-3.16V55.04a3.158 3.158 0 00-3.16-3.16z" fill="#FAFAFA"/><path d="M115.145 45.665a3.162 3.162 0 00-3.145 3.16v16.64a3.159 3.159 0 005.394 2.234 3.159 3.159 0 00.926-2.234v-16.64a3.155 3.155 0 00-1.961-2.924 3.16 3.16 0 00-1.214-.236z" fill="#30A1FF"/><path opacity=".3" d="M115.145 45.665a3.162 3.162 0 00-3.145 3.16v16.64a3.159 3.159 0 005.394 2.234 3.159 3.159 0 00.926-2.234v-16.64a3.155 3.155 0 00-1.961-2.924 3.16 3.16 0 00-1.214-.236z" fill="#000"/><path d="M123.059 58.095a3.16 3.16 0 00-3.16 3.16v4.21a3.159 3.159 0 003.16 3.16 3.158 3.158 0 003.165-3.16v-4.21a3.157 3.157 0 00-3.165-3.16z" fill="#30A1FF"/><path opacity=".6" d="M123.059 58.095a3.16 3.16 0 00-3.16 3.16v4.21a3.159 3.159 0 003.16 3.16 3.158 3.158 0 003.165-3.16v-4.21a3.157 3.157 0 00-3.165-3.16z" fill="#FAFAFA"/><path d="M189.805 129.565h12.775l-21.81-22.62 9.035 22.62z" fill="#30A1FF"/><path d="M189.805 129.565h12.775l-21.81-22.62 9.035 22.62z" fill="#000" opacity=".1"/><path d="M177.524 117.625l3.245-10.68 1.84 10.68h-5.085z" fill="#30A1FF"/><path d="M180.77 106.945v31.65l2.26-2.255 6.775-6.775-9.035-22.62z" fill="#30A1FF"/><path opacity=".3" d="M180.77 106.945v31.65l2.26-2.255 6.775-6.775-9.035-22.62z" fill="#FAFAFA"/><path d="M203.36 39.055h-28A5.381 5.381 0 00170 44.41v14.46a5.382 5.382 0 005.355 5.355H195.9l-.15 5.055 5.185-5.055h2.415a5.382 5.382 0 005.36-5.355V44.41a5.38 5.38 0 00-5.35-5.355zm-28.63 6.16a1.501 1.501 0 011.5-1.5h6.445a1.502 1.502 0 011.061 2.56 1.5 1.5 0 01-1.061.44h-6.45a1.499 1.499 0 01-1.495-1.5zm27.04 14h-11.14a1.498 1.498 0 01-1.618-2.11 1.5 1.5 0 011.618-.845h11.14a1.498 1.498 0 011.618 2.111 1.5 1.5 0 01-1.618.844zm0-6.255h-24.045a1.498 1.498 0 01-1.618-2.11 1.5 1.5 0 011.618-.845h24.045a1.498 1.498 0 011.618 2.111 1.5 1.5 0 01-1.618.844zm0-6.255h-14.235a1.502 1.502 0 01-1.061-2.56 1.5 1.5 0 011.061-.44h14.235a1.502 1.502 0 011.061 2.56 1.5 1.5 0 01-1.061.44zM159.569 84.89a26.825 26.825 0 00-5.375-8.89h-39.755a26.858 26.858 0 00-5.375 8.89l5.5 27.38a26.867 26.867 0 0045.092-9.306 26.865 26.865 0 00-.092-18.074h.005z" fill="#30A1FF"/><path opacity=".1" d="M159.569 84.89a26.825 26.825 0 00-5.375-8.89h-39.755a26.858 26.858 0 00-5.375 8.89l5.5 27.38a26.867 26.867 0 0045.092-9.306 26.865 26.865 0 00-.092-18.074h.005z" fill="#FAFAFA"/><path d="M161.154 95.305a26.774 26.774 0 01-7.08 16.965h-39.5a26.915 26.915 0 01-5.5-27.38h50.5a26.706 26.706 0 011.58 10.415z" fill="#30A1FF"/><path opacity=".9" d="M161.154 95.305a26.774 26.774 0 01-7.08 16.965h-39.5a26.915 26.915 0 01-5.5-27.38h50.5a26.706 26.706 0 011.58 10.415z" fill="#FAFAFA"/><path opacity=".3" d="M161.155 95.305a26.807 26.807 0 01-25.379 25.515 26.802 26.802 0 01-27.897-22.735 26.805 26.805 0 1153.276-2.78z" fill="#fff"/><path opacity=".4" d="M149.459 71.88l-38.63 35.23a61.32 61.32 0 01-.57-1.08 26.51 26.51 0 01-2.435-7.5l33.365-30.43a26.702 26.702 0 018.27 3.78zm10.336 13.655l-36.295 33.12a26.837 26.837 0 01-9.74-7.32l39.66-36.17a26.879 26.879 0 016.375 10.37z" fill="#fff"/><path d="M161.144 78.575a30.999 30.999 0 10-53.706 30.973 30.999 30.999 0 0053.706-30.973zm-48 27.72a24.45 24.45 0 011.775-27.103 24.444 24.444 0 114.518 34.274 24.45 24.45 0 01-6.288-7.171h-.005z" fill="#30A1FF"/><path opacity=".1" d="M161.144 78.575a30.999 30.999 0 10-53.706 30.973 30.999 30.999 0 0053.706-30.973zm-48 27.72a24.45 24.45 0 011.775-27.103 24.444 24.444 0 114.518 34.274 24.45 24.45 0 01-6.288-7.171h-.005z" fill="#000"/><path d="M63.03 125.945l3.83.89-3.175 2.37s-2.275-1.03-2.38-2.645l1.725-.615z" fill="#E4897B"/><path d="M68.91 129.385l-2.76 1.84-2.465-2.02 3.175-2.365 2.05 2.545z" fill="#E4897B"/><path d="M112.235 110.39c-4.07 3-8.245 5.85-12.44 8.635a537.93 537.93 0 01-12.715 8.165A542.958 542.958 0 0174.175 135c-2.16 1.29-4.34 2.54-6.5 3.81a12.68 12.68 0 01-3.47 1.535c-.655.173-1.325.286-2 .335a8.533 8.533 0 01-2.245-.115 4.112 4.112 0 01-2.613-1.744 4.097 4.097 0 01-.612-3.081c.034-.17.08-.337.14-.5a8.265 8.265 0 011-2c.376-.556.805-1.075 1.28-1.55a12.722 12.722 0 013.065-2.24c2.185-1.245 4.355-2.5 6.555-3.735 4.38-2.475 8.8-4.885 13.23-7.265a500.03 500.03 0 0113.425-6.935c4.51-2.25 9.055-4.44 13.695-6.46a3.104 3.104 0 013.09 5.345l.02-.01z" fill="#30A1FF"/><path opacity=".1" d="M112.235 110.39c-4.07 3-8.245 5.85-12.44 8.635a537.93 537.93 0 01-12.715 8.165A542.958 542.958 0 0174.175 135c-2.16 1.29-4.34 2.54-6.5 3.81a12.68 12.68 0 01-3.47 1.535c-.655.173-1.325.286-2 .335a8.533 8.533 0 01-2.245-.115 4.112 4.112 0 01-2.613-1.744 4.097 4.097 0 01-.612-3.081c.034-.17.08-.337.14-.5a8.265 8.265 0 011-2c.376-.556.805-1.075 1.28-1.55a12.722 12.722 0 013.065-2.24c2.185-1.245 4.355-2.5 6.555-3.735 4.38-2.475 8.8-4.885 13.23-7.265a500.03 500.03 0 0113.425-6.935c4.51-2.25 9.055-4.44 13.695-6.46a3.104 3.104 0 013.09 5.345l.02-.01z" fill="#000"/><path d="M68.58 102.26c-.25.405-.536.895-.806 1.355-.27.46-.535.94-.785 1.425-.5.955-1 1.925-1.5 2.91-.5.985-.905 2-1.315 3-.2.5-.41 1-.595 1.5l-.28.765c-.055.145-.065.205-.1.31-.035.105-.05.205-.08.305a15.576 15.576 0 00-.295 3c-.025 1.075 0 2.17.06 3.275s.12 2.215.22 3.325c.1 1.11.2 2.24.305 3.34l-1.93.395c-.34-1.115-.605-2.225-.87-3.35s-.465-2.255-.66-3.405a36.175 36.175 0 01-.41-3.5 17.395 17.395 0 01.095-3.755c.03-.175.055-.34.1-.5.045-.16.09-.385.13-.5l.245-.85c.16-.565.345-1.125.535-1.68.385-1.115.805-2.21 1.275-3.29.47-1.08.97-2.135 1.5-3.175.275-.5.565-1.035.86-1.55.295-.515.59-1 .96-1.545l3.34 2.195z" fill="#E4897B"/><path d="M66.445 205.5a4.688 4.688 0 01-1-.14.083.083 0 01-.047-.024.08.08 0 01-.023-.046.094.094 0 01.005-.053.094.094 0 01.035-.042c.134-.09 1.314-.85 1.77-.645a.313.313 0 01.18.26.499.499 0 01-.15.5 1.13 1.13 0 01-.77.19zm-.765-.27c.68.135 1.19.11 1.384-.07a.34.34 0 00.096-.325.134.134 0 00-.023-.071.13.13 0 00-.058-.049c-.234-.105-.92.225-1.4.515z" fill="#30A1FF"/><path d="M65.44 205.365a.086.086 0 01-.045 0 .084.084 0 01-.034-.034.082.082 0 01-.011-.046c0-.045 0-1.165.425-1.54a.494.494 0 01.39-.125.317.317 0 01.31.26c.09.435-.62 1.275-1 1.5a.075.075 0 01-.035-.015zm.665-1.58a.31.31 0 00-.205.08 2.088 2.088 0 00-.36 1.23c.37-.3.81-.93.755-1.195 0-.045-.035-.095-.15-.11l-.04-.005zm18.05 1.715a6.232 6.232 0 01-1.225-.14.083.083 0 01-.05-.025.083.083 0 01-.025-.05.095.095 0 01.05-.095c.175-.09 1.725-.88 2.2-.62a.29.29 0 01.16.245.5.5 0 01-.17.445c-.276.185-.608.27-.94.24zm-.92-.27c.865.145 1.5.105 1.74-.105a.342.342 0 00.105-.295.11.11 0 00-.016-.058.113.113 0 00-.044-.042c-.26-.14-1.15.195-1.785.5z" fill="#30A1FF"/><path d="M82.945 205.365a.072.072 0 01-.025.005.07.07 0 01-.025-.005.077.077 0 01-.034-.034.073.073 0 01-.006-.046c0-.045.095-1.095.58-1.5a.694.694 0 01.5-.16c.255.025.325.155.345.26.07.44-.845 1.28-1.31 1.5l-.025-.02zm.93-1.58a.495.495 0 00-.32.12 2.143 2.143 0 00-.5 1.2c.47-.285 1.095-.945 1.05-1.21 0 0 0-.09-.18-.105l-.05-.005z" fill="#30A1FF"/><path d="M74.5 87.245c.305 2.335 1 7.07-.69 8.5 0 0 .5 2.38 4.76 2.655 4.71.305 2.4-2.19 2.4-2.19-2.53-.78-2.34-2.685-1.775-4.445l-4.695-4.52z" fill="#E4897B"/><path d="M83.234 82.5a.17.17 0 01-.084-.025.179.179 0 01-.098-.181.179.179 0 01.022-.07 1.825 1.825 0 011.365-1 .184.184 0 01.144.293.185.185 0 01-.108.073 1.5 1.5 0 00-1.075.79.2.2 0 01-.166.12z" fill="#263238"/><path d="M84.58 84.55a8.364 8.364 0 001.3 1.89 1.349 1.349 0 01-1.095.315l-.205-2.205z" fill="#DE5753"/><path d="M84.25 84.04c.03.315.22.55.42.53.2-.02.35-.285.32-.6-.03-.315-.22-.55-.425-.53-.205.02-.345.29-.315.6z" fill="#263238"/><path d="M84.5 83.465l.73-.285s-.35.62-.73.285z" fill="#263238"/><path d="M78.665 205.27h3.895l.26-9.01h-3.895l-.26 9.01zm-17.685 0h3.895l1.25-9.01h-3.89l-1.255 9.01z" fill="#E4897B"/><path d="M65.115 204.82H60.74a.307.307 0 00-.31.265l-.5 3.46a.623.623 0 00.62.695c1.5-.025 2.26-.115 4.185-.115 1.18 0 2.91.12 4.545.12 1.635 0 1.72-1.615 1.04-1.76-3.05-.655-3.53-1.56-4.56-2.425a.998.998 0 00-.645-.24zm17.575 0h-4.37a.304.304 0 00-.31.265l-.5 3.46a.63.63 0 00.624.695c1.5-.025 2.26-.115 4.18-.115 1.185 0 3.63.12 5.265.12 1.635 0 1.72-1.615 1.04-1.76-3.05-.655-4.25-1.56-5.28-2.425a1 1 0 00-.65-.24z" fill="#263238"/><path d="M82.815 196.26l-.13 4.645H78.79l.135-4.645h3.89zm-20.585 0h3.895l-.645 4.645h-3.895l.645-4.645z" fill="#CE6F64"/><path d="M70.24 102.86a19.946 19.946 0 01-2.555 3.21l-.445-.295-4.93-3.275s2.69-6 4.715-6.305c1.935-.31 3.345 1.69 4 3.83.25.775-.165 1.825-.785 2.835z" fill="#30A1FF"/><path opacity=".6" d="M70.24 102.86a19.946 19.946 0 01-2.555 3.21l-.445-.295-4.93-3.275s2.69-6 4.715-6.305c1.935-.31 3.345 1.69 4 3.83.25.775-.165 1.825-.785 2.835z" fill="#FAFAFA"/><path d="M70.24 102.86a19.946 19.946 0 01-2.556 3.21l-.445-.295c.22-1.8.92-3.585 1.72-4.15.49.05.925.57 1.28 1.235z" fill="#30A1FF"/><path opacity=".4" d="M70.24 102.86a19.946 19.946 0 01-2.556 3.21l-.445-.295c.22-1.8.92-3.585 1.72-4.15.49.05.925.57 1.28 1.235z" fill="#FAFAFA"/><path d="M87.104 105.855c-.235 1.5-.54 3.265-.95 5.36-.5 2.68-1.2 5.895-2.085 9.74l-15.775-1c.68-6.405.945-10.365-1.27-23.74a46.406 46.406 0 016.76-.445c2.395-.016 4.788.14 7.16.465 3.06.5 6.5 1.42 6.5 1.42s.88.345-.34 8.2z" fill="#30A1FF"/><path opacity=".6" d="M87.104 105.855c-.235 1.5-.54 3.265-.95 5.36-.5 2.68-1.2 5.895-2.085 9.74l-15.775-1c.68-6.405.945-10.365-1.27-23.74a46.406 46.406 0 016.76-.445c2.395-.016 4.788.14 7.16.465 3.06.5 6.5 1.42 6.5 1.42s.88.345-.34 8.2z" fill="#FAFAFA"/><path d="M87.105 105.855c-.235 1.5-.54 3.265-.95 5.36A38.717 38.717 0 0184 105.5h2.93l.175.355z" fill="#30A1FF"/><path opacity=".4" d="M87.105 105.855c-.235 1.5-.54 3.265-.95 5.36A38.717 38.717 0 0184 105.5h2.93l.175.355z" fill="#FAFAFA"/><path d="M73.64 83.96c.595 3.815.77 5.445 2.895 7.23 3.195 2.69 7.75 1.12 8.305-2.8.5-3.525-.56-9.175-4.465-10.345a5.264 5.264 0 00-6.735 5.915z" fill="#E4897B"/><path d="M79.9 120.685s-.25 6.945-.85 15.705c-.5 7.35-1.256 15.97-2.31 22.84l-.03.19C74.813 171.58 66.42 200 66.42 200h-5.31s4.374-27.45 5.334-39.5c2.435-30.435-3.665-33.88 1.85-40.59l11.605.775z" fill="#30A1FF"/><path opacity=".3" d="M79.9 120.685s-.25 6.945-.85 15.705c-.5 7.35-1.256 15.97-2.31 22.84l-.03.19C74.813 171.58 66.42 200 66.42 200h-5.31s4.374-27.45 5.334-39.5c2.435-30.435-3.665-33.88 1.85-40.59l11.605.775z" fill="#000"/><path d="M79.05 136.39c-.5 7.35-1.255 15.97-2.31 22.84-1.795-8.925-4.745-21.96-.785-30.5a319.843 319.843 0 003.095 7.66z" fill="#30A1FF"/><path opacity=".4" d="M79.05 136.39c-.5 7.35-1.255 15.97-2.31 22.84-1.795-8.925-4.745-21.96-.785-30.5a319.843 319.843 0 003.095 7.66z" fill="#000"/><path d="M84.07 120.96s4.5 26.67 4.23 38.54c-.265 12.35-4.79 40.5-4.79 40.5h-5.26s.83-27.435.365-39.56c-.5-13.22-6.1-40.235-6.1-40.235l11.555.755z" fill="#30A1FF"/><path opacity=".3" d="M84.07 120.96s4.5 26.67 4.23 38.54c-.265 12.35-4.79 40.5-4.79 40.5h-5.26s.83-27.435.365-39.56c-.5-13.22-6.1-40.235-6.1-40.235l11.555.755z" fill="#000"/><path d="M77.35 200.25h7.055l.55-2.365-7.855.055.25 2.31zm-17.01 0h7.055l.55-2.365-7.555.055-.05 2.31zM68.114 119l-.8 1.37c-.065.105.06.225.24.235L84.1 121.68c.14 0 .265-.05.28-.14l.235-1.405c0-.095-.105-.185-.26-.195l-16-1.04a.31.31 0 00-.24.1z" fill="#263238"/><path d="M70.145 120.92l-.425-.03c-.085 0-.15-.055-.14-.105l.32-1.825c0-.05.085-.09.17-.085l.43.025c.085 0 .145.055.14.11l-.32 1.82c-.01.055-.09.095-.175.09z" fill="#30A1FF"/><path opacity=".3" d="M70.145 120.92l-.425-.03c-.085 0-.15-.055-.14-.105l.32-1.825c0-.05.085-.09.17-.085l.43.025c.085 0 .145.055.14.11l-.32 1.82c-.01.055-.09.095-.175.09z" fill="#000"/><path d="M80.5 121.59l-.425-.025c-.085 0-.15-.055-.14-.11l.32-1.82c0-.055.085-.09.175-.085l.425.025c.085 0 .15.055.14.11l-.32 1.82c.005.055-.075.09-.175.085z" fill="#30A1FF"/><path opacity=".3" d="M80.5 121.59l-.425-.025c-.085 0-.15-.055-.14-.11l.32-1.82c0-.055.085-.09.175-.085l.425.025c.085 0 .15.055.14.11l-.32 1.82c.005.055-.075.09-.175.085z" fill="#000"/><path d="M88.34 101.655c.6 2 1.17 4.025 1.724 6.045l1.676 6.045.21.75.054.185.025.095v.05c.018.066.04.131.066.195.122.304.29.587.5.84a8.35 8.35 0 002.05 1.58 26.476 26.476 0 005.499 2.22l-.29 1.95a20.825 20.825 0 01-6.54-1.415 10.36 10.36 0 01-3.144-1.94 6.238 6.238 0 01-1.3-1.71 4.662 4.662 0 01-.236-.535l-.055-.135-.034-.095-.066-.185-.264-.755c-.7-2-1.35-4-1.966-6.03-.614-2.03-1.22-4.03-1.77-6.07l3.86-1.085z" fill="#E4897B"/><path d="M87.445 97.635c2 .655 4.1 7.195 4.1 7.195l-7.22 3.11s-3-7.34-1.67-9c1.33-1.66 2.495-2.055 4.79-1.305z" fill="#30A1FF"/><path opacity=".6" d="M87.445 97.635c2 .655 4.1 7.195 4.1 7.195l-7.22 3.11s-3-7.34-1.67-9c1.33-1.66 2.495-2.055 4.79-1.305z" fill="#FAFAFA"/><path d="M83.585 77.825c-1.275-1.575-11.125-2.7-11.65 1.59-3.5 2.45-.18 8.78.32 10.39-2.415.67-10.195 3.33-4.5 8.5s14.235 4.29 15.904-1.06c1.17-3.74-2.544-10-2.465-12.19.08-2.19 4.575-4.555 2.39-7.23z" fill="#263238"/><path d="M72.945 90.595a.116.116 0 01-.095-.045c-.905-1.1-4.055-6.88-2.95-9.63a2.394 2.394 0 012.115-1.5.12.12 0 01.135.11.125.125 0 01-.105.14A2.16 2.16 0 0070.13 81c-1.065 2.66 2.025 8.305 2.91 9.385a.12.12 0 01-.095.2v.01z" fill="#263238"/><path d="M80.415 84.82a3.32 3.32 0 001 1.91c.71.68 1.38.215 1.445-.65.06-.775-.24-2.06-1.08-2.42-.84-.36-1.47.295-1.365 1.16zm17.28 34.3l2.84-.965-.445 3.415s-1.12.5-2.57-.76l-1.385-.885 1.09-.595a2.61 2.61 0 01.47-.21z" fill="#E4897B"/><path d="M102.52 118.145l-.87 2.985-1.56.435.445-3.41 1.985-.01z" fill="#E4897B"/></svg>