<svg width="146" height="32" fill="none" xmlns="http://www.w3.org/2000/svg"><path d="M99.771.77c1.731-.465 3.54-.28 5.307-.192 3.292.16 6.521.966 9.606 2.097 2.143.817 4.255 1.749 6.188 2.992a47.137 47.137 0 013.458 2.364c.694.528 1.474.968 2.324 1.182.708.191 1.445.102 2.168.17-.913.225-1.868.301-2.795.14-.963-.136-1.774-.717-2.57-1.231-2.285-1.586-4.721-2.967-7.312-3.987-4.278-1.641-8.798-2.717-13.385-2.918-1.115-.076-2.254-.162-3.354.09-.882.18-1.7.573-2.483 1.005-1.44.814-2.865 1.67-4.383 2.335-.914.429-1.946.332-2.925.334-2.65-.008-5.3.008-7.95.07-3.334.098-6.395 1.664-9.075 3.539-.752.48-1.36 1.146-2.11 1.628.354-.793 1.046-1.35 1.694-1.899 1.828-1.396 3.806-2.698 6.065-3.268 1.607-.431 3.277-.592 4.937-.592 2.455-.008 4.907-.13 7.36-.14.666-.007 1.352.04 1.993-.175 1.454-.453 2.75-1.274 4.071-2.011 1.026-.568 2.02-1.24 3.171-1.532z" fill="#30A1FF"/><path d="M105.75 5.912c2.294-1.232 5.006-1.505 7.552-1.095 1.969.256 3.903.827 5.691 1.687-.269.252-.528.578-.92.626-.439-.11-.836-.334-1.256-.49-1.278-.485-2.616-.776-3.946-1.079-2.3-.51-4.78-.278-6.9.775-.457.255-.903.532-1.377.756.35-.421.644-.932 1.156-1.18zM77.23 7.28c1.883-.765 3.918-1.119 5.95-1.124 1.632-.035 3.258.172 4.89.203 3.933.2 7.87.313 11.809.247 1.533.025 3.073-.272 4.602-.03-.263.294-.471.767-.928.759-3.469.153-6.953.228-10.42-.034-2.704-.176-5.399-.454-8.102-.64-1.87-.09-3.772-.179-5.615.232-1.338.277-2.612.786-3.825 1.408a5.87 5.87 0 011.64-1.021z" fill="#30A1FF"/><path d="M80.617 7.127c.778-.173 1.601-.08 2.348.183 1.108.452 1.924 1.476 2.265 2.605.213.946.118 1.985-.372 2.835-.688 1.238-2.1 2.039-3.521 1.945-1.83.015-3.46-1.523-3.675-3.316-.27-1.886 1.068-3.879 2.955-4.252zm.65.85c-1.366.099-2.526 1.283-2.682 2.629-.127 1.092.349 2.251 1.255 2.888.757.542 1.765.684 2.654.43 1.295-.36 2.274-1.667 2.207-3.017-.03-.903-.5-1.758-1.194-2.322-.623-.503-1.457-.664-2.24-.607zm27.831-.795c1.213-.312 2.607-.081 3.554.767 1.44 1.224 1.818 3.557.646 5.087-1.117 1.81-3.802 2.181-5.468.93-.932-.714-1.545-1.857-1.548-3.037-.035-1.686 1.163-3.346 2.816-3.747zm.005.756c-1.469.424-2.444 2.07-2.114 3.563.288 1.475 1.802 2.591 3.297 2.415 1.477-.08 2.704-1.393 2.798-2.847.084-.874-.322-1.728-.912-2.35-.775-.802-2.008-1.081-3.069-.781zm9.039.115c.558-.308 1.057-.712 1.598-1.05.425.167.812.41 1.178.682-1.693 1.595-3.976 2.289-6.174 2.862a17.002 17.002 0 01-.465-.855c1.319-.465 2.64-.95 3.863-1.64zm-44.039.377c.46-.464.9-.977 1.522-1.225-.227 1.477-1.329 3.091-2.96 3.12.287-.76.887-1.325 1.438-1.896z" fill="#30A1FF"/><path d="M81.223 8.178c1.287-.197 2.604.593 3.03 1.823.503 1.29-.229 2.883-1.469 3.453-.92.438-2.08.307-2.885-.315-.622-.5-1.062-1.26-1.054-2.073-.126-1.385 1.005-2.729 2.378-2.888zm28.017.014c.744-.16 1.575-.113 2.235.298.73.46 1.224 1.266 1.335 2.12.073 1.248-.753 2.492-1.941 2.893-1.287.479-2.856-.217-3.401-1.47-.724-1.458.179-3.461 1.772-3.841z" fill="#30A1FF"/><path d="M42.81 11.235a9.093 9.093 0 011.512-.14c-.306 1.629-.758 3.225-1.164 4.83.703.008 1.407.004 2.11.031-.095.416-.209.828-.346 1.232-.64-.006-1.28 0-1.918.014-.602 1.774-.932 3.627-1.396 5.44-.303 1.403-.696 2.787-.969 4.196-.05.511-.156 1.281.423 1.534 1.024.312 2.242.062 2.941-.787.176-.204.121-.5.149-.748-.013-3.084 1.145-6.148 3.16-8.48 1.61-1.818 4.074-2.793 6.49-2.698 1.22.01 2.528.444 3.272 1.463.736.977.884 2.246.864 3.433 1.444.202 2.835-.346 4.131-.91.224-.107.52-.207.556-.493.29-1.055.49-2.132.727-3.199 1.633-.052 3.267-.014 4.902-.021-.047.45-.098.9-.16 1.35.94-.675 1.954-1.352 3.14-1.453 1.096-.08 2.326-.13 3.248.576.636.456.965 1.187 1.273 1.882.862-.985 1.853-1.957 3.168-2.274 1.497-.366 3.314-.326 4.495.793.785.702.941 1.825.883 2.823-.194 2.419-1.142 4.684-1.598 7.051-.096.573-.08 1.35.484 1.68.511.17 1.087.16 1.612.048.875-.3 1.487-1.155 1.717-2.023.171-2.19.69-4.403 1.878-6.278 1.122-1.852 2.828-3.456 4.948-4.054a7.59 7.59 0 013.512-.117c.616.12 1.061.603 1.382 1.111.117-.365.238-.731.355-1.095 1.618-.031 3.236-.039 4.855.007-.725 3.533-1.631 7.025-2.435 10.54-.115.572-.191 1.2.058 1.747.746.765 2.062.51 2.761-.199.943-.932 1.306-2.25 1.563-3.51.686-2.858 1.358-5.722 2.019-8.585 1.633-.028 3.266-.04 4.897.006-.534 2.935-1.362 5.808-1.98 8.727-.184 1.016-.648 2.017-.502 3.065.066.579.702.76 1.198.742 1.31.108 2.567-.878 2.864-2.14.6-2.589 1.19-5.178 1.827-7.757.222-.882.358-1.783.652-2.646 1.627-.017 3.254-.05 4.881.02-.081.47-.17.938-.268 1.405.768-.565 1.561-1.145 2.502-1.383 1.231-.306 2.584-.248 3.736.313.949.476 1.493 1.542 1.511 2.582.141 2.695-1.131 5.171-1.567 7.78-.057.588-.121 1.429.541 1.706.611.19 1.314.148 1.911-.077.866-.586 1.287-1.592 1.795-2.466.451-.009.903-.007 1.356.008-.525 1.662-1.446 3.217-2.738 4.396-1.385 1.215-3.399 1.553-5.156 1.095-.822-.21-1.601-.7-2.024-1.453-.506-.812-.523-1.814-.399-2.732.309-2.07 1.076-4.04 1.389-6.107.082-.669.17-1.428-.238-2.011-.398-.542-1.214-.522-1.744-.198-1.082.611-1.648 1.817-1.937 2.977-.52 2.25-1.102 4.486-1.603 6.74-.232.928-.388 1.875-.705 2.778-1.613.092-3.233.05-4.847.022.058-.472.133-.94.239-1.404-1.185.896-2.604 1.546-4.108 1.58-1.177.084-2.42-.273-3.294-1.084-.321-.457-.5-.996-.751-1.494-.701.723-1.402 1.487-2.337 1.906-1.464.7-3.285.995-4.785.25-.875-.43-1.28-1.377-1.486-2.275-.69.652-1.304 1.413-2.147 1.88-1.63 1.002-3.79 1.11-5.485.21-.81-.446-1.321-1.253-1.742-2.046-.689.634-1.22 1.459-2.063 1.91-1.162.71-2.588.873-3.914.662-1.01-.176-2.041-.681-2.554-1.609-.504-.878-.488-1.944-.317-2.912.253-1.349.605-2.676.967-3.996.24-.975.512-1.966.463-2.979-.03-.508-.26-1.097-.781-1.272-.701-.234-1.443.146-1.947.625-.584.646-.976 1.457-1.216 2.29-.787 3.236-1.502 6.489-2.312 9.718-1.625.132-3.261.054-4.891.046.314-1.892.86-3.735 1.267-5.606a271.8 271.8 0 011.185-5.077c.157-.684.157-1.587-.484-2.026-.643-.187-1.359.044-1.841.491-.793.72-1.258 1.73-1.505 2.756-.67 2.983-1.438 5.945-2.09 8.934-.074.182-.084.534-.346.537-1.569.008-3.138.05-4.705-.037.684-3.474 1.691-6.878 2.356-10.355-1.341.46-2.668 1.062-4.105 1.131-.292.78-.332 1.624-.554 2.423-.617 2.44-2.088 4.735-4.28 6.035-1.407.85-3.118 1.037-4.727.841a5.888 5.888 0 01-2.498-.857c-.563-.353-.953-.901-1.385-1.39-.894.928-1.958 1.72-3.215 2.073-1.476.418-3.247.534-4.532-.445-.616-.427-.882-1.154-1.124-1.828-.623.505-1.125 1.153-1.813 1.575-1.26.794-2.807 1.163-4.287.932-.724-.133-1.436-.46-1.952-.995-.382-.523-.505-1.18-.7-1.786-.738 1.02-1.644 1.993-2.85 2.443-1.476.568-3.276.624-4.607-.33-.635-.434-.932-1.173-1.179-1.873-.794.614-1.395 1.479-2.321 1.914a6.578 6.578 0 01-3.522.665c-.86-.096-1.734-.48-2.248-1.2-.319-.434-.46-.962-.605-1.472-.678.674-1.3 1.434-2.149 1.904-1.3.785-2.915.986-4.385.63C1.941 31.018.89 30.187.43 29.05c-.591-1.266-.42-2.704-.357-4.054.433-2.732 1.642-5.435 3.725-7.307 1.78-1.643 4.445-2.312 6.779-1.64.592.21.878.82 1.132 1.348.08-.471.161-.94.23-1.411 1.645-.107 3.298-.052 4.946-.03a19.61 19.61 0 01-.157.889c-.74 3.142-1.514 6.276-2.245 9.42-.115.65-.302 1.403.066 2.003.772.742 2.08.482 2.763-.263a5.73 5.73 0 001.29-2.535c.743-3.17 1.498-6.339 2.244-9.51a100.44 100.44 0 014.94-.008c-.806 3.554-1.67 7.097-2.486 10.65-.1.589-.147 1.33.35 1.761.723.286 1.587.067 2.15-.45.717-.762 1.228-1.73 1.392-2.767.563-2.512 1.2-5.006 1.746-7.522.12-.57.277-1.13.473-1.678 1.616-.02 3.232-.026 4.849.002-.114.996-.423 1.954-.648 2.929a644 644 0 00-1.824 7.784c-.09.557-.24 1.411.395 1.704.753.206 1.671.21 2.294-.33.83-.733 1.379-1.755 1.587-2.839.586-2.672 1.327-5.312 1.83-8.001-.348-.002-.696 0-1.043.003.095-.402.024-.89.272-1.23.361-.043.724-.04 1.087-.053.42-1.398.678-2.837 1.065-4.244 1.17-.202 2.362-.25 3.535-.437zm9.236 7.25c-1.309 1.568-2.068 3.52-2.504 5.497-.25 1.04-.185 2.117-.167 3.176 0 .559.225 1.243.82 1.411.696.152 1.519.155 2.087-.338.797-.669 1.347-1.583 1.757-2.527.456-1.068.883-2.173.962-3.343-.278-.206-.61-.376-.788-.687-.142-.396-.116-.837-.037-1.244.112-.557.703-.799.966-1.266-.009-.57-.176-1.284-.759-1.524-.865-.256-1.778.186-2.337.845zm-43.048-.643c-.91.352-1.521 1.168-2.046 1.951-1.23 1.956-1.941 4.264-1.826 6.586-.017.738.084 1.703.875 2.016.65.156 1.399.159 1.98-.218a3.803 3.803 0 001.681-2.413c.493-2.2 1.029-4.39 1.552-6.583.21-.57-.179-1.215-.729-1.404a2.972 2.972 0 00-1.487.065zm86.488.038c-1.067.508-1.818 1.5-2.33 2.538-.886 1.695-1.484 3.575-1.498 5.5-.015.752.017 1.58.5 2.197.402.423 1.048.391 1.583.35.842-.081 1.474-.74 1.929-1.402.632-.923.724-2.07.982-3.127.342-1.35.65-2.706.987-4.057.106-.514.34-1.096.065-1.593-.469-.729-1.5-.66-2.218-.406zm-1.685-6.11c3.978.043 7.948-.27 11.91-.572.192.301.368.614.53.932a164.58 164.58 0 01-8.367.366c-3.67.191-7.348.047-11.018.19-.502.024-1.006.029-1.506.006.254-.256.477-.645.886-.637 2.528-.096 5.058-.187 7.59-.156l-.025-.129zm-22.547.152c.76-.048 1.513.095 2.27.145 1.27.112 2.545.014 3.815.075-.216.196-.389.542-.729.511-1.555-.021-3.119-.064-4.65-.34a1.098 1.098 0 01-.706-.391z" fill="#30A1FF"/><path d="M133.452 18.201c.645-1.428 2.223-2.288 3.763-2.27 2.928.02 5.857-.034 8.785.03-.251.603-.624 1.142-.984 1.682-2.031 3.127-4.06 6.255-6.084 9.388-.404.64-.858 1.253-1.149 1.957 1.036.048 2.072.232 3.11.13.361-.02.676-.205.964-.41-.22-.255-.517-.471-.62-.803.198-1.134 1.601-1.575 2.588-1.235.599.153.889.812.882 1.383.003 1.07-.759 1.968-1.598 2.544-1.006.695-2.27.791-3.454.774-2.719-.036-5.437.059-8.153-.043.113-.267.226-.537.381-.785.887-1.366 1.781-2.73 2.609-4.135 1.448-2.141 2.801-4.344 4.194-6.52.47-.747 1.004-1.454 1.38-2.254-1.186-.003-2.413-.169-3.57.157.056.542.292 1.12.061 1.65-.497.981-1.951 1.238-2.812.603-.531-.445-.604-1.25-.293-1.843z" fill="#30A1FF"/></svg>